<svg width="88" height="95" viewBox="0 0 88 95" fill="none" xmlns="http://www.w3.org/2000/svg">
<path d="M2.78516 30.6373C2.78515 27.1492 8.29184 27.1492 8.29183 30.6373V65.5172H2.78516V30.6373Z" fill="#FFFAFA"/>
<path d="M37.4179 4.04126C37.4179 4.04126 41.8075 1.64326 44.6415 2.29726C47.4755 2.95127 44.6415 4.47725 44.6415 4.47725C44.6415 4.47725 45.7315 7.74725 44.6415 7.52925C43.5516 7.31126 40.1958 8.79588 40.1958 8.79588L13.8705 24.1768C13.8705 24.1768 7.7996 26.4952 8.2356 31.2912C8.41323 33.2452 5.40171 30.4192 5.40171 30.4192C5.40171 30.4192 2.78572 31.4723 2.78572 30.4192C2.7857 22.7892 11.0925 19.4222 11.0925 19.4222L37.4179 4.04126Z" fill="#FFFAFA"/>
<path d="M85.2559 30.7244C85.2559 27.2363 79.7492 27.2363 79.7492 30.7244V64.6452L85.2559 65.0812L85.2559 30.7244Z" fill="#FFFAFA"/>
<path d="M50.6235 4.12833L47.8456 8.88296L54.4269 12.7282L61.0083 16.5734L74.1709 24.2639C74.1709 24.2639 79.8058 26.9312 79.8058 31.3783C79.8058 35.2152 82.6397 30.5063 82.6397 30.5063C82.6397 30.5063 85.2557 31.5593 85.2557 30.5063C85.2557 23.4432 76.9489 19.5092 76.9489 19.5092L63.7862 11.8188L57.2049 7.97356L50.6235 4.12833Z" fill="#FFFAFA"/>
<path d="M21.855 47.2054C21.855 46.4329 22.6936 45.9522 23.3603 46.3425L49.005 61.3563C49.6752 61.7487 49.6618 62.722 48.981 63.0958L45.918 64.7776C45.6082 64.9478 45.2315 64.9417 44.9273 64.7616L22.3456 51.3928C22.0415 51.2128 21.855 50.8857 21.855 50.5323L21.855 47.2054Z" fill="#FFFAFA"/>
<path d="M22.0088 67.1205C21.7023 66.939 21.5154 66.6083 21.5182 66.2522L21.5448 62.8393C21.5508 62.0703 22.3863 61.5956 23.05 61.984L40.3264 72.0966L37.8828 76.5182L22.0088 67.1205Z" fill="#FFFAFA"/>
<path d="M55.2754 6.8497L52.4981 11.6024L49.6748 9.95262L48.2632 9.12772L46.8515 8.30282C46.8515 8.30282 44.8586 7.31126 43.7685 7.52927C42.4224 7.79849 42.0246 4.47726 42.0246 4.47726C42.0246 4.47726 41.8065 2.73327 43.7685 2.29727C45.7306 1.86127 49.6288 3.55009 49.6288 3.55009L55.2754 6.8497Z" fill="#FFFAFA"/>
<path d="M37.4179 90.9587C37.4179 90.9587 41.8075 93.3567 44.6415 92.7027C47.4755 92.0487 44.6415 90.5227 44.6415 90.5227C44.6415 90.5227 45.7315 87.2527 44.6415 87.4707C43.5516 87.6887 40.1958 86.2041 40.1958 86.2041L13.8705 70.8232C13.8705 70.8232 7.7996 68.5048 8.2356 63.7088C8.41323 61.7548 5.40171 64.5808 5.40171 64.5808C5.40171 64.5808 2.78572 63.5277 2.78572 64.5808C2.7857 72.2108 11.0925 75.5778 11.0925 75.5778L37.4179 90.9587Z" fill="#FFFAFA"/>
<path d="M50.6242 90.8716L47.8462 86.117L54.4276 82.2718L61.0089 78.4265L74.1716 70.7361C74.1716 70.7361 80.1165 67.6971 79.7399 63.5552C79.5623 61.6012 82.6403 64.4937 82.6403 64.4937C82.6403 64.4937 85.2563 63.4406 85.2563 64.4937C85.2563 71.1851 76.9495 75.4907 76.9495 75.4907L63.7869 83.1812L57.2055 87.0264L50.6242 90.8716Z" fill="#FFFAFA"/>
<path d="M55.2754 88.1503L52.4981 83.3976L49.6748 85.0474L48.2632 85.8723L46.8515 86.6972C46.8515 86.6972 44.8586 87.6887 43.7685 87.4707C42.4224 87.2015 42.0246 90.5227 42.0246 90.5227C42.0246 90.5227 41.8065 92.2667 43.7685 92.7027C45.7306 93.1387 49.6288 91.4499 49.6288 91.4499L55.2754 88.1503Z" fill="#FFFAFA"/>
<path d="M60.3886 64.2316C60.3886 64.2316 60.9906 63.7733 60.9908 61.5933C60.991 59.4132 63.3887 61.5932 63.3887 61.5932C63.3887 61.5932 65.5689 56.3613 66.0047 61.5932C66.4406 66.8252 62.9058 68.543 62.9058 68.543L48.5218 76.9411C48.5218 76.9411 46.9159 77.9432 43.3326 77.9433C39.7493 77.9433 43.3326 75.9813 43.3326 75.9813C43.3326 75.9813 42.0248 72.9292 43.3326 73.1473C44.6404 73.3653 46.0046 72.6297 46.0046 72.6297L60.3886 64.2316Z" fill="#FFFAFA"/>
<path d="M60.3886 64.2316C60.3886 64.2316 60.9906 63.7733 60.9908 61.5933C60.991 59.4132 63.3887 61.5932 63.3887 61.5932C63.3887 61.5932 65.5689 56.3613 66.0047 61.5932C66.4406 66.8252 62.9058 68.543 62.9058 68.543L48.5218 76.9411C48.5218 76.9411 46.9159 77.9432 43.3326 77.9433C39.7493 77.9433 43.3326 75.9813 43.3326 75.9813C43.3326 75.9813 42.0248 72.9292 43.3326 73.1473C44.6404 73.3653 46.0046 72.6297 46.0046 72.6297L60.3886 64.2316Z" fill="#FFFAFA"/>
<path d="M36.6899 69.931L41.5671 72.8188C41.5671 72.8188 42.0263 73.1472 43.9883 73.1472C44.9086 73.1472 43.7703 75.7632 43.7703 75.7632C43.7703 75.7632 45.2963 77.9432 43.7703 77.9432C40.2609 77.9432 38.9907 77.1701 38.9907 77.1701L34.1135 74.2823L36.6899 69.931Z" fill="#FFFAFA"/>
<path d="M36.6899 69.931L41.5671 72.8188C41.5671 72.8188 42.0263 73.1472 43.9883 73.1472C44.9086 73.1472 43.7703 75.7632 43.7703 75.7632C43.7703 75.7632 45.2963 77.9432 43.7703 77.9432C40.2609 77.9432 38.9907 77.1701 38.9907 77.1701L34.1135 74.2823L36.6899 69.931Z" fill="#FFFAFA"/>
<path d="M28.0012 35.4332L61.9602 55.5405C61.9602 55.5405 66.0057 57.2332 66.0057 61.5932C66.0057 65.9532 63.3897 61.5932 63.3897 61.5932C63.3897 61.5932 60.9917 62.7646 60.9917 61.5932C60.9917 60.7212 59.4167 59.8361 59.4167 59.8361L25.4577 39.7289L28.0012 35.4332Z" fill="#FFFAFA"/>
<path d="M28.0005 35.4332L61.9595 55.5405C61.9595 55.5405 66.0049 57.2331 66.0049 61.5931C66.0049 65.9531 63.3889 61.5931 63.3889 61.5931C63.3889 61.5931 60.9909 62.7645 60.9909 61.5931C60.9909 60.7211 59.416 59.8361 59.416 59.8361L25.457 39.7288C25.457 39.7288 21.9692 38.0492 21.969 34.1252C21.9688 30.2012 24.367 34.1252 24.367 34.1252C24.367 34.1252 26.983 33.4712 26.983 34.1252C26.9829 34.7792 28.0005 35.4332 28.0005 35.4332Z" fill="#FFFAFA"/>
<path d="M65.6777 29.5727C65.9826 29.7532 66.1693 30.0816 66.1683 30.436L66.1588 33.7936C66.1567 34.5648 65.3192 35.0434 64.6536 34.6538L47.3865 24.5454L49.8008 20.1732L65.6777 29.5727Z" fill="#FFFAFA"/>
<path d="M27.3216 32.4963C27.3216 32.4963 26.9843 33.1157 26.9842 34.1252C26.9842 34.1252 22.4061 40.3667 21.9702 35.1347C21.5344 29.9028 24.8044 28.185 24.8044 28.185L39.1884 19.7869C39.1884 19.7869 40.7943 18.7847 44.3776 18.7847C47.9609 18.7847 44.3776 20.7467 44.3776 20.7467C44.3776 20.7467 45.6854 23.7987 44.3776 23.5807C43.0698 23.3627 41.7056 24.0983 41.7056 24.0983L27.3216 32.4963Z" fill="#FFFAFA"/>
<path d="M51.021 26.797L46.1439 23.9092C46.1439 23.9092 45.6847 23.5808 43.7227 23.5808C42.8023 23.5808 43.9407 20.9648 43.9407 20.9648C43.9407 20.9648 42.4147 18.7848 43.9407 18.7848C47.45 18.7848 48.7202 19.5579 48.7202 19.5579L53.5974 22.4457L51.021 26.797Z" fill="#FFFAFA"/>
</svg>
