<svg width="28" height="28" viewBox="0 0 28 28" fill="none" xmlns="http://www.w3.org/2000/svg">
<path d="M1.33398 12.4444C1.33398 7.20692 1.33398 4.58748 2.96176 2.96109C4.58815 1.33331 7.2076 1.33331 12.4451 1.33331H15.2229C20.4604 1.33331 23.0798 1.33331 24.7062 2.96109C26.334 4.58748 26.334 7.20692 26.334 12.4444V15.2222C26.334 20.4597 26.334 23.0791 24.7062 24.7055C23.0798 26.3333 20.4604 26.3333 15.2229 26.3333H12.4451C7.2076 26.3333 4.58815 26.3333 2.96176 24.7055C1.33398 23.0791 1.33398 20.4597 1.33398 15.2222V12.4444Z" stroke="#FFFAFA" stroke-width="2.66667"/>
<path d="M20.083 6.83301C20.4971 6.83301 20.8328 7.16894 20.833 7.58301C20.833 7.99722 20.4972 8.33301 20.083 8.33301C19.6689 8.33283 19.333 7.99711 19.333 7.58301C19.3332 7.16905 19.6691 6.83318 20.083 6.83301Z" stroke="#FFFAFA" stroke-width="2.66667"/>
<path d="M13.8338 18.6941C16.5185 18.6941 18.6949 16.5177 18.6949 13.833C18.6949 11.1483 16.5185 8.97186 13.8338 8.97186C11.149 8.97186 8.97266 11.1483 8.97266 13.833C8.97266 16.5177 11.149 18.6941 13.8338 18.6941Z" stroke="#FFFAFA" stroke-width="2.66667"/>
</svg>
