<svg width="25" height="25" viewBox="0 0 25 25" fill="none" xmlns="http://www.w3.org/2000/svg">
<path d="M18.6768 12.8228C18.3646 12.412 17.7791 12.2066 16.9204 12.2066C15.8665 12.2066 15.1249 12.5196 14.6956 13.1455C14.2662 13.7715 14.0515 14.6518 14.0515 15.7864V24.3545C14.0515 24.5501 13.993 24.7066 13.8759 24.8239C13.7588 24.9413 13.6027 25 13.4075 25H8.95785C8.80172 25 8.65535 24.9413 8.51874 24.8239C8.38212 24.7066 8.31382 24.5501 8.31382 24.3545V8.50939C8.31382 8.35289 8.38212 8.20618 8.51874 8.06925C8.65535 7.93232 8.80172 7.86385 8.95785 7.86385H13.2904C13.4465 7.86385 13.5734 7.90297 13.671 7.98122C13.7685 8.05947 13.8368 8.17684 13.8759 8.33333V8.62676C13.9149 8.70501 13.9344 8.84194 13.9344 9.03756C15.0273 7.98122 16.5105 7.45305 18.3841 7.45305C20.4528 7.45305 22.0726 7.98122 23.2436 9.03756C24.4145 10.0939 25 11.6393 25 13.6737V24.3545C25 24.5501 24.9317 24.7066 24.7951 24.8239C24.6585 24.9413 24.5121 25 24.356 25H19.7892C19.6331 25 19.4867 24.9413 19.3501 24.8239C19.2135 24.7066 19.1452 24.5501 19.1452 24.3545V14.73C19.1452 13.8693 18.9891 13.2336 18.6768 12.8228ZM5.15223 5.19366C4.56674 5.80008 3.85441 6.10329 3.01522 6.10329C2.17603 6.10329 1.4637 5.80008 0.87822 5.19366C0.29274 4.58725 0 3.86346 0 3.0223C0 2.18114 0.29274 1.46714 0.87822 0.880282C1.4637 0.293427 2.17603 0 3.01522 0C3.85441 0 4.56674 0.293427 5.15223 0.880282C5.73771 1.46714 6.03045 2.18114 6.03045 3.0223C6.03045 3.86346 5.73771 4.58725 5.15223 5.19366ZM5.91335 8.50939V24.3545C5.91335 24.5501 5.84504 24.7066 5.70843 24.8239C5.57182 24.9413 5.42545 25 5.26932 25H0.819672C0.624512 25 0.468384 24.9413 0.351288 24.8239C0.234192 24.7066 0.175644 24.5501 0.175644 24.3545V8.50939C0.175644 8.35289 0.234192 8.20618 0.351288 8.06925C0.468384 7.93232 0.624512 7.86385 0.819672 7.86385H5.26932C5.42545 7.86385 5.57182 7.93232 5.70843 8.06925C5.84504 8.20618 5.91335 8.35289 5.91335 8.50939Z" fill="#FFFAFA"/>
</svg>
